<svg aria-hidden="true" style="position: absolute; width: 0; height: 0; overflow: hidden;" version="1.1" xmlns="http://www.w3.org/2000/svg" xmlns:xlink="http://www.w3.org/1999/xlink">
<defs>
<symbol id="icon-more" viewBox="0 0 25 25" fill="none">
<path d="M11 16L15 12M15 12L11 8M15 12H3M4.51555 17C6.13007 19.412 8.87958 21 12 21C16.9706 21 21 16.9706 21 12C21 7.02944 16.9706 3 12 3C8.87958 3 6.13007 4.58803 4.51555 7" stroke-width="2" stroke-linecap="round" stroke-linejoin="round"/>
</symbol>
<symbol id="icon-link" viewBox="0 0 25 25" fill="none">
<g clip-path="url(#clip0_429_11072)">
<path d="M11 3.99994H4V17.9999C4 19.1045 4.89543 19.9999 6 19.9999H18C19.1046 19.9999 20 19.1045 20 17.9999V12.9999" stroke-width="2.5" stroke-linecap="round" stroke-linejoin="round"/>
<path d="M9 14.9999L20 3.99994" stroke-width="2.5" stroke-linecap="round" stroke-linejoin="round"/>
<path d="M15 3.99994H20V8.99994" stroke-width="2.5" stroke-linecap="round" stroke-linejoin="round"/>
</g>
<defs>
<clipPath id="clip0_429_11072">
<rect width="24" height="24" />
</clipPath>
</defs>
</symbol>
<symbol id="icon-edit" viewBox="0 0 20 22" fill="none">
<path d="M14 6L8 12V16H12L18 10M14 6L17 3L21 7L18 10M14 6L18 10M10 4L4 4L4 20L20 20V14" stroke="#fff" stroke-width="1.5" stroke-linecap="round" stroke-linejoin="round"/>
</symbol>
<symbol id="icon-arrow-next" viewBox="0 0 30 30">
<path d="M10.427 27.642c0.521 0.521 1.365 0.521 1.886 0l8.859-8.859c1.562-1.562 1.562-4.093 0.001-5.656l-8.76-8.767c-0.521-0.521-1.365-0.521-1.886 0s-0.521 1.365 0 1.886l8.763 8.763c0.521 0.521 0.521 1.365 0 1.886l-8.863 8.863c-0.521 0.521-0.521 1.365 0 1.886z"></path>
</symbol>
<symbol id="icon-arrow-prev" viewBox="0 0 30 30">
<path d="M21.573 4.358c-0.521-0.521-1.365-0.521-1.886 0l-8.859 8.859c-1.562 1.562-1.562 4.093-0.001 5.656l8.76 8.767c0.521 0.521 1.365 0.521 1.886 0s0.521-1.365 0-1.886l-8.763-8.763c-0.521-0.521-0.521-1.365 0-1.886l8.863-8.863c0.521-0.521 0.521-1.365 0-1.886z"></path>
</symbol>
<symbol id="icon-close" viewBox="0 0 30 30">
<path d="M27.661 4.438c-0.521-0.521-1.365-0.521-1.886 0l-9.726 9.726-9.726-9.726c-0.521-0.521-1.365-0.521-1.886 0s-0.521 1.365 0 1.886l9.726 9.726-9.726 9.726c-0.521 0.521-0.521 1.365 0 1.886s1.365 0.521 1.886 0l9.726-9.726 9.726 9.726c0.521 0.521 1.365 0.521 1.886 0s0.521-1.365 0-1.886l-9.726-9.726 9.726-9.726c0.521-0.521 0.521-1.365 0-1.886z"></path>
</symbol>
<symbol id="icon-maximize" viewBox="0 0 30 30">
<path d="M21.524 1.667c-0.552 0-1 0.448-1 1s0.448 1 1 1h5.395l-7.626 7.626c-0.391 0.391-0.391 1.024 0 1.414s1.024 0.391 1.414 0l7.626-7.626v5.395c0 0.552 0.448 1 1 1s1-0.448 1-1v-7.81c0-0.552-0.448-1-1-1h-7.809z"></path>
<path d="M10.476 30.333c0.552 0 1-0.448 1-1s-0.448-1-1-1h-5.395l7.626-7.626c0.391-0.391 0.391-1.024 0-1.414s-1.024-0.391-1.414 0l-7.626 7.626v-5.395c0-0.552-0.448-1-1-1s-1 0.448-1 1v7.809c0 0.552 0.448 1 1 1h7.81z"></path>
</symbol>
</defs>
</svg>
